<svg xmlns="http://www.w3.org/2000/svg" viewBox="0 0 150 87.51"><defs><clipPath id="clip-path"><path class="cls-1" d="M0 0h150v87.51H0z"></path></clipPath><style>#tr-layer .cls-1{fill:none}#tr-layer .cls-2{clip-path:url(#clip-path)}#tr-layer .cls-3{fill:#d00027}#tr-layer .cls-4{fill:#fff}</style></defs><g id="tr-layer" data-name="Layer 2"><g class="cls-2" id="Layer_1-2" data-name="Layer 1"><path class="cls-3" d="M0 0h150v87.51H0z"></path><g class="cls-2"><path class="cls-4" d="M43.78 21.86a21.87 21.87 0 11-21.87 21.87 21.86 21.86 0 0121.87-21.87"></path><path class="cls-3" d="M49.22 26a17.71 17.71 0 11-17.44 17.73A17.51 17.51 0 0149.22 26"></path><path class="cls-4" d="M62.23 43.73l10.45 3.68 1.81-5.23-12.26 1.55z"></path><path class="cls-4" d="M62.23 43.73l10.45-3.1 1.81 5.18-12.26-2.08z"></path><path class="cls-4" d="M69.8 33.33v10.93h5.44L69.8 33.33z"></path><path class="cls-4" d="M69.8 33.33l6.5 8.85-4.42 3.15-2.08-12z"></path><path class="cls-4" d="M69.8 54.18l6.5-8.85-4.42-3.15-2.08 12z"></path><path class="cls-4" d="M69.8 54.18V43.25h5.44L69.8 54.18z"></path><path class="cls-4" d="M82.01 37.49l-10.4 3.14 1.81 5.18 8.59-8.32z"></path><path class="cls-4" d="M82.01 37.49l-6.24 8.85-4.69-3.09 10.93-5.76z"></path><path class="cls-4" d="M82.01 49.97l-6.24-8.86-4.69 3.68 10.93 5.18z"></path><path class="cls-4" d="M82.01 49.97l-10.4-3.1 1.81-5.22 8.59 8.32z"></path></g></g></g></svg>